/* XPM */
static char * boinc_gui_32_xpm[] = {
"32 32 43 1",
" 	c None",
".	c #CBCBCB",
"+	c #9999CC",
"@	c #666699",
"#	c #333399",
"$	c #6666CC",
"%	c #333366",
"&	c #000080",
"*	c #000066",
"=	c #000033",
"-	c #0C0C0C",
";	c #333333",
">	c #666666",
",	c #996666",
"'	c #ADA990",
")	c #666633",
"!	c #1C1C1C",
"~	c #5F5F5F",
"{	c #CCCC99",
"]	c #FFFF99",
"^	c #FFCC99",
"/	c #FFCC66",
"(	c #555555",
"_	c #999966",
":	c #FFCC33",
"<	c #CC9933",
"[	c #424242",
"}	c #996633",
"|	c #777777",
"1	c #CCCC33",
"2	c #999933",
"3	c #663300",
"4	c #393939",
"5	c #292929",
"6	c #CC9966",
"7	c #333300",
"8	c #4D4D4D",
"9	c #868686",
"0	c #330066",
"a	c #CCCC66",
"b	c #222222",
"c	c #808080",
"d	c #A0A0A4",
"            .+++++++            ",
"          ++@@@####@@@          ",
"        +$@#%&*****%%##@        ",
"       +@#***=========*%%@      ",
"      @#%*===-------===**%#     ",
"     @#**==--;>,''''>)!=***#    ",
"    @#**==-~{]]^^/^^^//(=***#   ",
"   @#&**=-_]]^/:<<:://::[****   ",
"  +@%***=[^^//:})|~1:::<)%%**%  ",
"  @#****=2//::23~@*<::<))##***  ",
" $#&*****451:1}3|#=6/1)7(@#***% ",
" @#*****==8//1})%=5^:}7;9@#***= ",
"+#%*****==_//12)*!{^:);9$@%***=|",
"$#*****==!^/:<<(;{^/<)@@##*****%",
"@#*****==)^/:<}2://:}(*********;",
"##*****=-_^/<}))}<<::::(*******=",
"#%*****=-^/:23>+@(}1::::4*****==",
"#%****==8^/:}79+@%0::::<)%%***=5",
"@%****==_^/<3[@@#*=<::<})##***=[",
"$%****=-a/:}7~@#*==6/:}3(@#***=|",
" *****=5//1);@@%==!^/<37|@#***= ",
" %****=(/:<)(#%==->^:)7>+@%**=5 ",
"  ****=)::<}&*=--;^:}7~+@#&**=  ",
"  %****;<::<);--~^:}7>+$@%**=b  ",
"   *****=<:::/^^/:)[c+$@%**==   ",
"   #****4<<<<<<<);|++@#%**==(   ",
"    %****()3777[|+++@#%**==4    ",
"     %=**#@@|cd+++@#%***==4     ",
"      (=0%#@@@@@@#%&**==-(      ",
"        ;=%%%###%***===b        ",
"          5=========-5          ",
"            |[b==b[|            "};
