/* XPM */
static char * boincmgr_16_xpm[] = {
"16 16 162 2",
"  	c None",
". 	c #000021",
"+ 	c #6182A1",
"@ 	c #FFFFFF",
"# 	c #6085A2",
"$ 	c #507BA4",
"% 	c #000041",
"& 	c #617C9A",
"* 	c #E0E7F3",
"= 	c #D2DCE8",
"- 	c #CED8E7",
"; 	c #E2E9F2",
"> 	c #8A9DB1",
", 	c #000035",
"' 	c #496D93",
") 	c #5E7EA6",
"! 	c #000039",
"~ 	c #466287",
"{ 	c #D7DEE7",
"] 	c #AEB9C8",
"^ 	c #21406B",
"/ 	c #00164A",
"( 	c #00043A",
"_ 	c #0C2852",
": 	c #C7D2E1",
"< 	c #909FB0",
"[ 	c #000020",
"} 	c #53658C",
"| 	c #4E719D",
"1 	c #071F4D",
"2 	c #00154C",
"3 	c #4A678E",
"4 	c #8195B4",
"5 	c #657EA8",
"6 	c #AABACD",
"7 	c #F7F9FB",
"8 	c #8190A3",
"9 	c #00093C",
"0 	c #4A5F85",
"a 	c #2C5486",
"b 	c #000C45",
"c 	c #B4C3D7",
"d 	c #FFFFFD",
"e 	c #FFFFFE",
"f 	c #CDDEF5",
"g 	c #001B50",
"h 	c #000A3D",
"i 	c #CCDAEA",
"j 	c #E2E8F1",
"k 	c #D3DFE4",
"l 	c #F5FCFF",
"m 	c #C6D5E3",
"n 	c #FFE186",
"o 	c #FCD66C",
"p 	c #FACD58",
"q 	c #FFE085",
"r 	c #9BB6D8",
"s 	c #000D46",
"t 	c #5B769A",
"u 	c #C6D2E4",
"v 	c #041543",
"w 	c #B7C2D1",
"x 	c #FFF5CC",
"y 	c #FFFDEA",
"z 	c #FFF6BF",
"A 	c #FDD242",
"B 	c #FFDC74",
"C 	c #577CAB",
"D 	c #062E64",
"E 	c #D8E0EA",
"F 	c #AEBCD1",
"G 	c #000138",
"H 	c #7E98BC",
"I 	c #FAC741",
"J 	c #FFE06E",
"K 	c #FED655",
"L 	c #FCCE44",
"M 	c #F8BA15",
"N 	c #F0A906",
"O 	c #9BAAC2",
"P 	c #000530",
"Q 	c #B8C3D4",
"R 	c #A7B4C8",
"S 	c #000737",
"T 	c #A0B5D0",
"U 	c #EDA700",
"V 	c #F7B100",
"W 	c #F7B200",
"X 	c #F4AA00",
"Y 	c #F1A600",
"Z 	c #F2A709",
"` 	c #5F7799",
" .	c #000013",
"..	c #BFCCDE",
"+.	c #00002D",
"@.	c #344F75",
"#.	c #F4C45D",
"$.	c #EA9600",
"%.	c #F7B509",
"&.	c #F8C328",
"*.	c #F5B412",
"=.	c #F7C35C",
"-.	c #B9C5D3",
";.	c #0C2459",
">.	c #CFDBEC",
",.	c #FBFFFF",
"'.	c #395982",
").	c #00001D",
"!.	c #ADC0D1",
"~.	c #F2C560",
"{.	c #F0A712",
"].	c #EEA413",
"^.	c #FFDF8B",
"/.	c #CEDDEB",
"(.	c #EBF4FE",
"_.	c #E6F4FE",
":.	c #E8EFF8",
"<.	c #D1DDEB",
"[.	c #030C35",
"}.	c #000230",
"|.	c #C1CFDD",
"1.	c #CFDEF2",
"2.	c #07255A",
"3.	c #204479",
"4.	c #7D8DA3",
"5.	c #000029",
"6.	c #264272",
"7.	c #DBE3EA",
"8.	c #B9C2CF",
"9.	c #7189AA",
"0.	c #9BACC4",
"a.	c #5E779A",
"b.	c #001148",
"c.	c #000031",
"d.	c #00002B",
"e.	c #4B6892",
"f.	c #778CA6",
"g.	c #000024",
"h.	c #4E6284",
"i.	c #F8FFFF",
"j.	c #D8E3F1",
"k.	c #002054",
"l.	c #000026",
"m.	c #000135",
"n.	c #000E48",
"o.	c #44638F",
"p.	c #A9B8CD",
"q.	c #4A5872",
"r.	c #00000F",
"s.	c #597092",
"t.	c #6586A6",
"u.	c #000037",
"v.	c #566D94",
"w.	c #E0E8F4",
"x.	c #C4D3EA",
"y.	c #B0C2DD",
"z.	c #ACC0DC",
"A.	c #D0E0F6",
"B.	c #556482",
"C.	c #4E6B8C",
"D.	c #4D729E",
"E.	c #4E6A8E",
". + @ @ @ @ @ @ @ @ @ @ @ @ # . ",
"$ % & @ @ @ @ * = - ; @ @ > , ' ",
"@ ) ! ~ { ] ^ / ( _ : @ < [ } @ ",
"@ @ | ( 1 2 3 4 5 6 7 8 9 0 @ @ ",
"@ @ @ a b c @ d e @ f g h i @ @ ",
"@ j k l m @ n o p q @ r s t @ @ ",
"@ u v w @ n x y z A B @ C D E @ ",
"@ F G H @ I J K L M N @ O P Q @ ",
"@ R S T @ U V W X Y Z @ `  ...@ ",
"@ ..+.@.@ #.$.%.&.*.=.@ -.;.>.@ ",
"@ ,.'.).!.@ ~.{.].^.@ /.(._.:.@ ",
"@ @ <.[.}.|.@ @ d @ 1.2.3.@ @ @ ",
"@ @ 4.5.6.7.8.9.0.a.b.c.d.e.@ @ ",
"@ f.g.h.i.j.k.l.m.n.o.p.q.r.s.@ ",
"t.u.v.@ @ w.x.y.z.A.@ @ @ B.. C.",
". D.@ @ @ @ @ @ @ @ @ @ @ @ E.. "};
