/* XPM */
static char * boincmgr_32_xpm[] = {
"32 32 502 2",
"  	c None",
". 	c #FFFFFF",
"+ 	c #597C9E",
"@ 	c #FEFFFF",
"# 	c #FEFEFF",
"$ 	c #174876",
"% 	c #3E6790",
"& 	c #FDFEFF",
"* 	c #FBFDFF",
"= 	c #FAFCFF",
"- 	c #F9FBFF",
"; 	c #FCFDFF",
"> 	c #8BA1B8",
", 	c #225C96",
"' 	c #174674",
") 	c #375E88",
"! 	c #F6FAFF",
"~ 	c #F4F9FF",
"{ 	c #F2F7FF",
"] 	c #F1F7FF",
"^ 	c #F2F8FF",
"/ 	c #F3F8FF",
"( 	c #F5FAFF",
"_ 	c #F7FAFF",
": 	c #F9FCFF",
"< 	c #90A2B7",
"[ 	c #123965",
"} 	c #163D68",
"| 	c #173D67",
"1 	c #1A4875",
"2 	c #1B4674",
"3 	c #194370",
"4 	c #2B527C",
"5 	c #F9FAFC",
"6 	c #F6F6F5",
"7 	c #F1F1F0",
"8 	c #EBEBE9",
"9 	c #F9FDFF",
"0 	c #EAF0F9",
"a 	c #DBE3EE",
"b 	c #C9D3E2",
"c 	c #C4CFDF",
"d 	c #CAD5E5",
"e 	c #DBE4F3",
"f 	c #EEF5FF",
"g 	c #96A5B8",
"h 	c #123461",
"i 	c #173862",
"j 	c #17375F",
"k 	c #24538B",
"l 	c #255C95",
"m 	c #1B4471",
"n 	c #1D4470",
"o 	c #1A416C",
"p 	c #234772",
"q 	c #A1B4CD",
"r 	c #F1F8FF",
"s 	c #FBFEFF",
"t 	c #F9F9FB",
"u 	c #8592A8",
"v 	c #48658D",
"w 	c #31486E",
"x 	c #203A64",
"y 	c #193460",
"z 	c #1A3560",
"A 	c #233D66",
"B 	c #2A436B",
"C 	c #4A6184",
"D 	c #E6EFFB",
"E 	c #EFF6FF",
"F 	c #F5F9FF",
"G 	c #FCFEFF",
"H 	c #98A4B6",
"I 	c #14315C",
"J 	c #18355E",
"K 	c #17335A",
"L 	c #224E86",
"M 	c #225993",
"N 	c #1B416C",
"O 	c #1E416C",
"P 	c #1C3E69",
"Q 	c #203F6B",
"R 	c #879CBB",
"S 	c #D1DBE7",
"T 	c #8A98AB",
"U 	c #395B89",
"V 	c #204270",
"W 	c #0E305E",
"X 	c #122E5B",
"Y 	c #14305D",
"Z 	c #15305D",
"` 	c #142F56",
" .	c #ECF2F7",
"..	c #E8F2FE",
"+.	c #E9F3FF",
"@.	c #99A5B8",
"#.	c #15315C",
"$.	c #19325B",
"%.	c #193056",
"&.	c #164077",
"*.	c #265991",
"=.	c #1B3D69",
"-.	c #1F3E69",
";.	c #1C3863",
">.	c #253F68",
",.	c #243F67",
"'.	c #152F5A",
").	c #0F315F",
"!.	c #17345B",
"~.	c #1C3E6C",
"{.	c #234573",
"].	c #224472",
"^.	c #153765",
"/.	c #203A57",
"(.	c #F6F9FA",
"_.	c #EFF9FF",
":.	c #E8F2FF",
"<.	c #F6FCFF",
"[.	c #99A6B7",
"}.	c #183460",
"|.	c #1B365F",
"1.	c #1A3157",
"2.	c #103569",
"3.	c #E4EDF7",
"4.	c #225087",
"5.	c #1F3962",
"6.	c #1A355D",
"7.	c #103260",
"8.	c #183A68",
"9.	c #7592B9",
"0.	c #FCFFFF",
"a.	c #F6FBFE",
"b.	c #C7D9EE",
"c.	c #E0EDFB",
"d.	c #F5FBFF",
"e.	c #F6F7F1",
"f.	c #9CA4AB",
"g.	c #173460",
"h.	c #1C3963",
"i.	c #1F3860",
"j.	c #0E366C",
"k.	c #CCD9EA",
"l.	c #B5CBE5",
"m.	c #1A467D",
"n.	c #163460",
"o.	c #143664",
"p.	c #294B79",
"q.	c #6A8CBA",
"r.	c #1B3760",
"s.	c #18335F",
"t.	c #213C65",
"u.	c #163664",
"v.	c #A1B8D5",
"w.	c #F7FBFF",
"x.	c #EFF7FF",
"y.	c #C0D4EA",
"z.	c #174984",
"A.	c #315381",
"B.	c #BCD5F5",
"C.	c #436593",
"D.	c #1B3660",
"E.	c #19325C",
"F.	c #1B3862",
"G.	c #6B7F9F",
"H.	c #F1F7FE",
"I.	c #F8FBFF",
"J.	c #E8F1FE",
"K.	c #E9F4FF",
"L.	c #F3FAFF",
"M.	c #CFE0F2",
"N.	c #385A88",
"O.	c #FDECB3",
"P.	c #FDE193",
"Q.	c #FCDA73",
"R.	c #FBD265",
"S.	c #FBCE54",
"T.	c #FCDA6E",
"U.	c #BFD8F8",
"V.	c #3A5C8A",
"W.	c #1F3C67",
"X.	c #1C3B67",
"Y.	c #C0CDE0",
"Z.	c #2A4268",
"`.	c #EBF2F8",
" +	c #F8FCFF",
".+	c #FEE9A9",
"++	c #FFF9E5",
"@+	c #FFFEFB",
"#+	c #FFFBEF",
"$+	c #FFF5D0",
"%+	c #FEE99C",
"&+	c #FEDA68",
"*+	c #F8C43C",
"=+	c #83A5D3",
"-+	c #264571",
";+	c #1C3A69",
">+	c #1A3B6B",
",+	c #677FA1",
"'+	c #DFEAFB",
")+	c #112D54",
"!+	c #0C2852",
"~+	c #FEE38C",
"{+	c #FFF2C7",
"]+	c #FFF9E3",
"^+	c #FFEFB7",
"/+	c #FEEA9D",
"(+	c #FEE484",
"_+	c #FDD659",
":+	c #F8C238",
"<+	c #4F719F",
"[+	c #2C558B",
"}+	c #265085",
"|+	c #1E3F6C",
"1+	c #DFE9F6",
"2+	c #B9CCE6",
"3+	c #0B2750",
"4+	c #0E2A52",
"5+	c #1B3860",
"6+	c #FDDF7F",
"7+	c #FFEAA6",
"8+	c #FFF2C5",
"9+	c #FFF0BA",
"0+	c #FFEDAB",
"a+	c #FEECA7",
"b+	c #FEEBA3",
"c+	c #FEE99B",
"d+	c #FEE588",
"e+	c #FDDF71",
"f+	c #F9C12A",
"g+	c #F7C751",
"h+	c #9EB7D7",
"i+	c #48668B",
"j+	c #2C4975",
"k+	c #153360",
"l+	c #C0CDDF",
"m+	c #7992B7",
"n+	c #0B2850",
"o+	c #0F2B54",
"p+	c #314D72",
"q+	c #C4D7EF",
"r+	c #FBD25A",
"s+	c #FEE58D",
"t+	c #FEECA6",
"u+	c #FEE78E",
"v+	c #FEE589",
"w+	c #FDDF7B",
"x+	c #FCD55A",
"y+	c #FBCC3E",
"z+	c #FAC42B",
"A+	c #F4B10E",
"B+	c #F0B227",
"C+	c #324764",
"D+	c #2A4168",
"E+	c #17325B",
"F+	c #A1B0C6",
"G+	c #7488A4",
"H+	c #203E6A",
"I+	c #597595",
"J+	c #F8BF33",
"K+	c #FDD75D",
"L+	c #FDD759",
"M+	c #FDCF44",
"N+	c #FCCA36",
"O+	c #FBC528",
"P+	c #FBC01B",
"Q+	c #FABB12",
"R+	c #F8B70D",
"S+	c #F6B50A",
"T+	c #F0AC06",
"U+	c #EDA613",
"V+	c #1A3050",
"W+	c #0E254E",
"X+	c #092149",
"Y+	c #93A2BC",
"Z+	c #F4FAFF",
"`+	c #7F90AA",
" @	c #486383",
".@	c #F6B923",
"+@	c #F6B60F",
"@@	c #F9BC13",
"#@	c #F9BD14",
"$@	c #F9BD16",
"%@	c #F9BD17",
"&@	c #F8BB14",
"*@	c #F6B60E",
"=@	c #F4B308",
"-@	c #F4B207",
";@	c #EFAB06",
">@	c #F0A412",
",@	c #1B3352",
"'@	c #10264F",
")@	c #071D46",
"!@	c #95A7C5",
"~@	c #7587A4",
"{@	c #152C53",
"]@	c #13294F",
"^@	c #143056",
"/@	c #E59D00",
"(@	c #EDA803",
"_@	c #F4B50C",
":@	c #F5B60E",
"<@	c #F5B40B",
"[@	c #F4B208",
"}@	c #F3B106",
"|@	c #F3B207",
"1@	c #F4B50E",
"2@	c #F0AC0D",
"3@	c #F5AC26",
"4@	c #0D2342",
"5@	c #0F254D",
"6@	c #09224C",
"7@	c #A6B9D5",
"8@	c #132A50",
"9@	c #062651",
"0@	c #A3B2C1",
"a@	c #EBBC4D",
"b@	c #F0B008",
"c@	c #F2AF05",
"d@	c #F3B30B",
"e@	c #F3B510",
"f@	c #F7C027",
"g@	c #F7C332",
"h@	c #F4AE16",
"i@	c #F7C361",
"j@	c #163658",
"k@	c #0D2148",
"l@	c #0D2A58",
"m@	c #C2D2E9",
"n@	c #A8B6CE",
"o@	c #1C355E",
"p@	c #13294E",
"q@	c #0B2853",
"r@	c #294363",
"s@	c #E4A00A",
"t@	c #EBA707",
"u@	c #F3B310",
"v@	c #F7BE22",
"w@	c #F6BB1E",
"x@	c #FAC430",
"y@	c #FCCB3E",
"z@	c #FBD25B",
"A@	c #F8B52D",
"B@	c #0B356D",
"C@	c #16386B",
"D@	c #E0EBF9",
"E@	c #F0F7FE",
"F@	c #3C5D8C",
"G@	c #0E254C",
"H@	c #09264E",
"I@	c #AEBDCD",
"J@	c #E7A309",
"K@	c #F5BB26",
"L@	c #FAC438",
"M@	c #FCD256",
"N@	c #FCD763",
"O@	c #FAD150",
"P@	c #F8BA37",
"Q@	c #F1F9FF",
"R@	c #FDFFFF",
"S@	c #6C90C0",
"T@	c #AEC1DB",
"U@	c #102C59",
"V@	c #19365B",
"W@	c #EFBA3A",
"X@	c #F8C455",
"Y@	c #5072A0",
"Z@	c #9BB4D7",
"`@	c #EAF4FF",
" #	c #E9F1FE",
".#	c #EEF6FD",
"+#	c #0E2A57",
"@#	c #294669",
"##	c #7A9CCA",
"$#	c #14305C",
"%#	c #184278",
"&#	c #A9C1DE",
"*#	c #C8D3E1",
"=#	c #173058",
"-#	c #0B2857",
";#	c #334D63",
">#	c #698BB9",
",#	c #122F5C",
"'#	c #16315E",
")#	c #18335D",
"!#	c #174279",
"~#	c #B7CCE5",
"{#	c #F5F8FC",
"]#	c #4A6283",
"^#	c #132A51",
"/#	c #122A52",
"(#	c #123B6F",
"_#	c #A3B9D4",
":#	c #FAFEFF",
"<#	c #E3EDF8",
"[#	c #D2DFEE",
"}#	c #F5FAFA",
"|#	c #F2F8FE",
"1#	c #DDE5E4",
"2#	c #81A3D1",
"3#	c #335583",
"4#	c #0B2758",
"5#	c #142C56",
"6#	c #183057",
"7#	c #1B345B",
"8#	c #19335C",
"9#	c #18457C",
"0#	c #E4ECF6",
"a#	c #607794",
"b#	c #142F57",
"c#	c #10366A",
"d#	c #A3BCDC",
"e#	c #F2FBFF",
"f#	c #F2FAFF",
"g#	c #16355D",
"h#	c #2A4665",
"i#	c #3F5871",
"j#	c #465F78",
"k#	c #3E5874",
"l#	c #214371",
"m#	c #092B59",
"n#	c #0D2755",
"o#	c #162C52",
"p#	c #112A53",
"q#	c #0F2952",
"r#	c #172E54",
"s#	c #1A3158",
"t#	c #19325A",
"u#	c #1A4378",
"v#	c #67809D",
"w#	c #0C325E",
"x#	c #143767",
"y#	c #C9D7EA",
"z#	c #F0F9FF",
"A#	c #0B254E",
"B#	c #102851",
"C#	c #112851",
"D#	c #14294E",
"E#	c #102953",
"F#	c #0D3165",
"G#	c #5376A5",
"H#	c #6C83A5",
"I#	c #0B2147",
"J#	c #13284C",
"K#	c #162B51",
"L#	c #193159",
"M#	c #113B6F",
"N#	c #607E9E",
"O#	c #0D3665",
"P#	c #193A67",
"Q#	c #ECF1F7",
"R#	c #DFE9F8",
"S#	c #4B6E9F",
"T#	c #193D74",
"U#	c #0E2D5D",
"V#	c #0C2652",
"W#	c #0C254F",
"X#	c #0C2651",
"Y#	c #103367",
"Z#	c #1B4783",
"`#	c #4974AB",
" $	c #ADC4E2",
".$	c #EDF5FF",
"+$	c #C9D0DC",
"@$	c #081D44",
"#$	c #112548",
"$$	c #152D53",
"%$	c #1B4271",
"&$	c #5C7FA0",
"*$	c #0D3B6A",
"=$	c #163E6A",
"-$	c #204675",
";$	c #ECF3FE",
">$	c #D1E0F5",
",$	c #ABC2E3",
"'$	c #8CA9D2",
")$	c #7C9CCA",
"!$	c #7C9ECD",
"~$	c #8EAEDA",
"{$	c #ADC7EB",
"]$	c #D2E2F8",
"^$	c #122A4F",
"/$	c #17355D",
"($	c #1A3C66",
"_$	c #487097",
":$	c #104272",
"<$	c #16426E",
"[$	c #153C67",
"}$	c #27548C",
"|$	c #F3F9FF",
"1$	c #1D4173",
"2$	c #143158",
"3$	c #163962",
"4$	c #183F6A",
"5$	c #1C416D",
"6$	c #275A94",
"7$	c #15426F",
"8$	c #FBFCFF",
"9$	c #224D83",
"0$	c #13365F",
"a$	c #FBFCFD",
"b$	c #2A5283",
"c$	c #F6F7F9",
". . + . . . . . . . . . . @ # # # # @ . . . . . . . . . . $ . . ",
". % $ % . . . . . . # & * = - - - - = ; & # . . . . . . > $ $ . ",
", $ $ ' ) . . . # * - ! ~ { ] { ^ / ( ! _ : ; # . . . < [ } | $ ",
". , 1 2 3 4 5 & = 6 7 8 9 ( 0 a b c d e f / ! = . . g h i j k . ",
". . l m n o p q / r s t u v w x y z A B C D E F G H I J K L . . ",
". . . M N O P Q R S T U V W X Y Y Z Y `  ...+.9 @.#.$.%.&.. . . ",
". . . . *.=.-.;.>.,.'.).).!.~.{.].^./.(._.:.<.[.}.|.1.2.. . . . ",
". . . . 3.4.;.5.6.7.).8.9.0.a.0.0.b.c.d.r e.f.g.h.i.j.k.. . . . ",
". . # - ! l.m.n.o.).p.0.0.0.0.0.0.0.0.0.0.q.r.s.t.u.v.w.; @ . . ",
". . * ~ f x.y.z.W A.0.0.0.0.0.0.0.0.0.0.0.B.C.D.E.F.G.H.I.& . . ",
". # - ~ J.K.L.M.N.0.0.0.0.O.P.Q.R.S.T.0.0.0.U.V.y W.X.Y.w.* . . ",
". & I.^ Z.`.<. +0.0.0.0..+++@+#+$+%+&+*+0.0.0.=+-+;+>+,+/ - # . ",
". * I.'+)+!+0. +0.0.0.~+{+]+]+$+^+/+(+_+:+0.0.0.<+[+}+|+1+I.& . ",
"@ = w.2+3+4+5+c.0.0.6+7+8+9+0+a+b+c+d+e+f+g+0.0.h+i+j+k+l+I.; . ",
"# - ! m+n+o+p+q+0.0.r+s+t+u+v+s+w+x+y+z+A+B+0.0.0.C+D+E+F+w.* . ",
"# - ( G+n.H+I+0.0.0.J+K+L+M+N+O+P+Q+R+S+T+U+0.0.0.V+W+X+Y+w.* . ",
"# - Z+`+H+H+ @0.0.0..@+@@@#@$@%@&@*@=@-@;@>@0.0.0.,@'@)@!@w.* . ",
"# : ( ~@{@]@^@0.0.0./@(@_@:@*@<@[@}@|@1@2@3@0.0.q+4@5@6@7@w.* . ",
"@ = w.m+8@]@9@0@& 0.a@/@b@}@c@}@d@e@f@g@h@i@0.0.c.j@k@l@m@I.; . ",
". * I.n@o@p@q@r@& 0.0.s@t@u@v@w@x@y@e+z@A@0.0.0. +0.B@C@D@I.& . ",
". & I.E@F@G@H@H@I@0.0.0.J@K@L@M@N@e+O@P@0.0.0.0. +Q@R@S@{ : # . ",
". # - w.T@U@H@H@V@0.0.0.0.W@e@e@e@e@X@0.0.0.0.Y@Z@L.`@ #~ * . . ",
". . ; I..#F@H@H@+#@#0.0.0.0.0.0.0.0.0.0.0.0.##$#%#&#r ] _ & . . ",
". . # = w.*#=#H@H@-#;#0.0.0.0.0.0.# # # 0.>#,#'#)#!#~#: * . . . ",
". . . # {#]#^#^#/#(#_#:#:#0.<#[#}#|#1#2#3#4#5#6#7#8#9#0#. . . . ",
". . . . a#b#b#^#c#d#e#f#R@g#h#i#j#k#l#m#n#o#p#q#r#s#t#u#. . . . ",
". . . v#w#w#b#x#y#z#..@ A#B#H@H@H@H@C#D#E#F#G#H#I#J#K#L#M#. . . ",
". . N#O#O#w#P#Q#w.E R#S#T#U#V#W#X#H@Y#Z#`# $.$! +$@$#$$$5+%$. . ",
". &$*$=$O#-$. . : F { ;$>$,$'$)$!$~${$]$.$! _ * # . +#^$/$($m . ",
"_$:$<$[$}$. . . # ; - _ ! ! Z+|$~ ( _ w.I.= & @ . . . 1$2$3$4$5$",
". 6$7$6$. . . . . . # & * = : : : : 8$; & @ . . . . . . 9$0$2$. ",
"a$. 6$. . . . . . . . . . @ # # # @ . . . . . . . . . . . b$. c$"};
