/* XPM */
static char * boinc_gui_16_xpm[] = {
"16 16 32 1",
" 	c None",
".	c #000066",
"+	c #000033",
"@	c #333333",
"#	c #555555",
"$	c #000080",
"%	c #4D4D4D",
"&	c #996666",
"*	c #393939",
"=	c #000099",
"-	c #424242",
";	c #FFCC99",
">	c #FFCC66",
",	c #999933",
"'	c #808080",
")	c #CC9966",
"!	c #CC9933",
"~	c #CCCC33",
"{	c #333366",
"]	c #292929",
"^	c #FFCC33",
"/	c #5F5F5F",
"(	c #666633",
"_	c #333399",
":	c #666666",
"<	c #996633",
"[	c #CCCC66",
"}	c #666699",
"|	c #777777",
"1	c #666600",
"2	c #868686",
"3	c #969696",
"       .+@#     ",
"    $.++++++#   ",
"   $.++%&&&*+#  ",
"  =$+-;;;>>>,+' ",
" =$$+);>!.~~,{* ",
" $$.+]>^/.^,(#{ ",
"_$$.+:>^#!^<#{{%",
"$$.++[^!,~^<-{]]",
"...+]>!:}%^!<{@]",
"{.++(>!|_+!!1#{{",
" +++,^,{++^(#}{ ",
" +++<^<++!,-2}{ ",
" |+++!!!!</32/  ",
"  /++(((:22}/   ",
"   |@{:22}:#    ",
"      |::|      "};
